<svg xmlns="http://www.w3.org/2000/svg" xmlns:xlink="http://www.w3.org/1999/xlink"><symbol id="email" viewBox="0 0 511.6 511.6"><path d="M498.2 68.2c-8.9-8.9-19.7-13.4-32.3-13.4H45.7c-12.6 0-23.3 4.5-32.3 13.4C4.5 77.2 0 87.9 0 100.5v310.6c0 12.6 4.5 23.3 13.4 32.3 8.9 9 19.7 13.4 32.3 13.4H466c12.6 0 23.3-4.5 32.3-13.4 8.9-8.9 13.4-19.7 13.4-32.3V100.5c-.1-12.6-4.5-23.3-13.5-32.3zm-23.1 342.9c0 2.5-.9 4.6-2.7 6.4-1.8 1.8-3.9 2.7-6.4 2.7H45.7c-2.5 0-4.6-.9-6.4-2.7-1.8-1.8-2.7-3.9-2.7-6.4V191.9c6.1 6.9 12.7 13.1 19.7 18.8 51 39.2 91.6 71.4 121.6 96.5 9.7 8.2 17.6 14.6 23.7 19.1 6.1 4.6 14.3 9.2 24.7 13.8 10.4 4.7 20.1 7 29.3 7h.6c9.1 0 18.9-2.3 29.3-7 10.4-4.7 18.6-9.3 24.7-13.8 6.1-4.6 14-10.9 23.7-19.1 30.1-25.1 70.6-57.3 121.6-96.5 7-5.7 13.6-12 19.7-18.8v219.2h-.1zm0-303.2v3.1c0 11.2-4.4 23.7-13.3 37.5s-18.4 24.8-28.7 33c-36.7 28.9-74.9 59.1-114.5 90.5-1.1 1-4.5 3.8-10 8.4-5.5 4.7-9.9 8.2-13.1 10.7-3.2 2.5-7.5 5.5-12.7 9-5.2 3.5-10 6.1-14.4 7.9-4.4 1.7-8.5 2.6-12.3 2.6h-.6c-3.8 0-7.9-.9-12.3-2.6-4.4-1.7-9.2-4.3-14.4-7.9-5.2-3.5-9.5-6.5-12.7-9-3.2-2.5-7.6-6-13.1-10.7-5.5-4.7-8.9-7.5-10-8.4-39.6-31.4-77.7-61.6-114.5-90.5-28-22.1-42-49.1-42-81.1 0-2.5.9-4.6 2.7-6.4 1.8-1.8 3.9-2.7 6.4-2.7h420.3c1.5.9 2.9 1.1 4 .7 1.1-.4 2 .3 2.6 2.1.6 1.8 1.1 2.7 1.6 2.6.5-.1.8 1.1.9 3.6.1 2.5.1 3.7.1 3.7v3.9z"/></symbol><symbol id="folder" viewBox="0 0 475.1 475.1"><path d="M456.2 128.5c-12.6-12.6-27.6-18.8-45.1-18.8H219.2v-9.1c0-17.5-6.3-32.5-18.8-45.1-12.6-12.6-27.6-18.8-45.1-18.8H64c-17.5 0-32.6 6.3-45.1 18.8C6.3 67.9 0 83 0 100.5v274.1c0 17.5 6.3 32.5 18.8 45.1 12.6 12.6 27.6 18.8 45.1 18.8h347.2c17.5 0 32.6-6.3 45.1-18.8 12.6-12.6 18.8-27.6 18.8-45.1v-201c.1-17.5-6.2-32.6-18.8-45.1zm-17.7 246.1c0 7.6-2.7 14.1-8 19.4-5.3 5.3-11.8 8-19.4 8H64c-7.6 0-14.1-2.7-19.4-8-5.3-5.3-8-11.8-8-19.4V100.5c0-7.6 2.7-14.1 8-19.4 5.3-5.3 11.8-8 19.4-8h91.4c7.6 0 14.1 2.7 19.4 8 5.3 5.3 8 11.8 8 19.4v18.3c0 7.6 2.7 14.1 8 19.4 5.3 5.3 11.8 8 19.4 8h201c7.6 0 14.1 2.7 19.4 8 5.3 5.3 8 11.8 8 19.4v201h-.1z"/></symbol><symbol id="heart" viewBox="0 0 511.6 511.6"><path d="M475.4 71.9c-24.2-23.6-57.6-35.4-100.2-35.4-11.8 0-23.8 2-36.1 6.1s-23.7 9.6-34.3 16.6c-10.6 6.9-19.6 13.5-27.3 19.6-7.6 6.1-14.8 12.6-21.7 19.4-6.9-6.8-14.1-13.3-21.7-19.4-7.6-6.1-16.7-12.6-27.3-19.6-10.6-6.9-22-12.5-34.3-16.6-12.3-4.1-24.3-6.1-36.1-6.1-42.6 0-76 11.8-100.2 35.4C12.1 95.6 0 128.3 0 170.2c0 12.8 2.2 25.9 6.7 39.4s9.6 25 15.3 34.5c5.7 9.5 12.2 18.8 19.4 27.8 7.2 9 12.5 15.3 15.8 18.7 3.3 3.4 5.9 5.9 7.9 7.4l178.2 171.9c3.4 3.4 7.6 5.1 12.6 5.1s9.1-1.7 12.6-5.1l177.9-171.3c43.6-43.6 65.4-86.4 65.4-128.5-.2-41.8-12.3-74.6-36.4-98.2zm-54 199.9L255.8 431.4 89.9 271.5c-35.6-35.6-53.3-69.4-53.3-101.3 0-15.4 2-29 6.1-40.8 4.1-11.8 9.3-21.2 15.7-28.1 6.4-6.9 14.1-12.6 23.3-17 9.1-4.4 18.1-7.3 26.8-8.8 8.8-1.5 18.1-2.3 28-2.3 9.9 0 20.6 2.4 32 7.3 11.4 4.9 21.9 10.9 31.5 18.3 9.6 7.3 17.8 14.2 24.7 20.6 6.9 6.4 12.6 12.2 17.1 17.6 3.4 4.2 8.1 6.3 14 6.3s10.6-2.1 14-6.3c4.6-5.3 10.3-11.2 17.1-17.6 6.9-6.4 15.1-13.2 24.7-20.6 9.6-7.3 20.1-13.4 31.6-18.3 11.4-4.9 22.1-7.3 32-7.3s19.2.8 28 2.3C412 77 420.9 80 430 84.4c9.1 4.4 16.9 10 23.3 17 6.4 6.9 11.6 16.3 15.7 28.1s6.1 25.4 6.1 40.8c0 31.8-17.9 65.7-53.7 101.5z"/></symbol><symbol id="pencil-case" viewBox="0 0 503.614 503.614"><path d="M402.617 68.717c-5.405-16.35-11.146-35.739-12.641-55.598l-.403-5.347A8.379 8.379 0 0 0 383.261.26a8.366 8.366 0 0 0-9.124 3.618l-2.887 4.516c-10.5 16.434-24.265 30.418-37.569 43.092-8.108 7.722-12.691 18.289-12.918 29.763-.195 9.877 3.23 19.379 9.27 26.85l-27.692 110.143h-20.409l-5.581-109a37.773 37.773 0 0 0 2.142-1.971l1.469-1.46c7.269-7.277 24.282-24.291 4.49-44.082-15.427-15.427-2.493-39.886-1.939-40.893a8.414 8.414 0 0 0-2.149-10.626c-3.215-2.526-7.789-2.392-10.828.344-.302.277-30.275 27.287-48.271 45.291-7.059 7.059-10.609 14.495-10.542 22.1.087 10.514 6.926 18.563 13.098 24.731l-5.865 115.566H202.13l-32.152-127.61c-.048-.191-.111-.375-.171-.559-.024-.073-.042-.148-.068-.221a8.21 8.21 0 0 0-.352-.84c-.039-.081-.087-.158-.129-.238a7.98 7.98 0 0 0-.306-.543c-.023-.036-.039-.075-.063-.111L114.331 3.84A8.409 8.409 0 0 0 104.67.424a8.396 8.396 0 0 0-5.766 8.469l5.775 98.623c.003.054.014.107.018.161a8.042 8.042 0 0 0 .132.97c.018.092.028.183.049.275l25.301 109.32h-6.109a8.385 8.385 0 0 0-8.393 8.393V470.3c0 18.373 14.94 33.314 33.314 33.314h201.963c18.373 0 33.314-14.94 33.314-33.314V226.635a8.385 8.385 0 0 0-8.393-8.393H354.41l24.685-97.939c.331-.14.665-.27.994-.418 11.709-5.313 20.237-15.511 23.376-27.984a41.426 41.426 0 0 0-.848-23.184zm-164.864 90.77h24.357l.859 16.787H236.9l.853-16.787zm23.497-16.786h-22.646l1.394-27.477a33.814 33.814 0 0 0 13.247 2.682c.243 0 .487 0 .73-.008a34.77 34.77 0 0 0 5.971-.649l1.304 25.452zm-28.115-74.988c7.856-7.848 18.054-17.484 27.01-25.785-.185 10.366 2.644 21.873 12.439 31.668 6.664 6.664 5.951 9.896-4.49 20.346l-1.469 1.46c-3.584 3.584-8.2 5.615-13.01 5.716-4.574.134-9.224-1.729-12.641-5.145l-2.61-2.552c-4.809-4.658-10.811-10.458-10.853-15.612-.025-2.937 1.872-6.336 5.624-10.096zm2.914 125.348h27.78l1.289 25.18h-30.347l1.278-25.18zM148.685 87.8l-27.866 8.192-3.299-56.328L148.685 87.8zm-25.662 25.044l32.811-9.648 28.981 115.046h-37.392l-24.4-105.398zm244.457 340.41H132.463V268.602H367.48v184.652zm-16.527 33.573H148.99c-9.115 0-16.527-7.411-16.527-16.527v-.256H367.48v.256c0 9.116-7.412 16.527-16.527 16.527zm16.527-235.012H132.463v-16.787H367.48v16.787zm-47.825-33.573l24.837-98.792c5.269 2.492 10.858 3.866 16.469 4.114l-23.87 94.678h-17.436zm67.527-130.438c-1.88 7.479-7 13.597-14.034 16.795a25.73 25.73 0 0 1-2.625 1.022 8.34 8.34 0 0 0-1.59.464c-5.96 1.531-12.226.792-18.044-2.175a23.616 23.616 0 0 1-5.507-3.92 8.341 8.341 0 0 0-.429-.433c-4.703-4.696-7.53-11.281-7.401-17.982.176-8.922 4.289-14.68 7.705-17.937 10.24-9.745 20.757-20.27 30.149-32.189 2.677 15.368 7.076 29.847 11.281 42.555a24.66 24.66 0 0 1 .495 13.8z"/><path d="M182.824 419.684h134.295a8.39 8.39 0 0 0 8.393-8.393V310.569a8.385 8.385 0 0 0-8.393-8.393H182.824a8.385 8.385 0 0 0-8.393 8.393V411.29a8.39 8.39 0 0 0 8.393 8.394zm8.394-100.721h117.508v83.934H191.218v-83.934z"/><path d="M275.152 335.746h-50.361a8.39 8.39 0 0 0-8.393 8.393 8.39 8.39 0 0 0 8.393 8.393h50.361a8.39 8.39 0 0 0 8.393-8.393 8.39 8.39 0 0 0-8.393-8.393zM275.152 369.319h-50.361c-4.642 0-8.393 3.76-8.393 8.393s3.752 8.393 8.393 8.393h50.361c4.642 0 8.393-3.76 8.393-8.393s-3.752-8.393-8.393-8.393z"/></symbol><symbol id="search"><path d="M464.524 412.846l-97.929-97.925c23.6-34.068 35.406-72.047 35.406-113.917 0-27.218-5.284-53.249-15.852-78.087-10.561-24.842-24.838-46.254-42.825-64.241-17.987-17.987-39.396-32.264-64.233-42.826C254.246 5.285 228.217.003 200.999.003c-27.216 0-53.247 5.282-78.085 15.847C98.072 26.412 76.66 40.689 58.673 58.676c-17.989 17.987-32.264 39.403-42.827 64.241C5.282 147.758 0 173.786 0 201.004c0 27.216 5.282 53.238 15.846 78.083 10.562 24.838 24.838 46.247 42.827 64.234 17.987 17.993 39.403 32.264 64.241 42.832 24.841 10.563 50.869 15.844 78.085 15.844 41.879 0 79.852-11.807 113.922-35.405l97.929 97.641c6.852 7.231 15.406 10.849 25.693 10.849 9.897 0 18.467-3.617 25.694-10.849 7.23-7.23 10.848-15.796 10.848-25.693.003-10.082-3.518-18.651-10.561-25.694zM291.363 291.358c-25.029 25.033-55.148 37.549-90.364 37.549-35.21 0-65.329-12.519-90.36-37.549-25.031-25.029-37.546-55.144-37.546-90.36 0-35.21 12.518-65.334 37.546-90.36 25.026-25.032 55.15-37.546 90.36-37.546 35.212 0 65.331 12.519 90.364 37.546 25.033 25.026 37.548 55.15 37.548 90.36 0 35.216-12.519 65.331-37.548 90.36z"/></symbol></svg>