<svg xmlns="http://www.w3.org/2000/svg" viewBox="0 0 50 50"><style type="text/css">
	.st0{fill:none;}
</style><path class="st0" d="M40.6 41.6c-1.2 0-2.1 0.9-2.1 2.1 0 1.2 0.9 2.1 2.1 2.1 1.2 0 2.1-0.9 2.1-2.1C42.7 42.5 41.8 41.6 40.6 41.6z"/><polygon points="4.2 6.2 39.6 6.2 39.6 10.3 43.8 10.3 43.8 2 0 2 0 37.4 27.1 37.4 27.1 33.3 4.2 33.3 "/><polygon points="10.4 47.8 27.1 47.8 27.1 41.6 15.8 41.6 "/><path d="M49.3 15.2c-0.5-0.5-1.1-0.7-1.8-0.7H33.8c-0.7 0-1.3 0.3-1.8 0.7 -0.5 0.5-0.7 1.1-0.7 1.8v28.3c0 0.7 0.3 1.3 0.7 1.8 0.5 0.5 1.1 0.7 1.8 0.7h13.7c0.7 0 1.3-0.3 1.8-0.7 0.5-0.5 0.7-1.1 0.7-1.8V17C50 16.3 49.7 15.7 49.3 15.2zM38.5 16.6h4.2c0.6 0 1 0.5 1 1s-0.5 1-1 1h-4.2c-0.6 0-1-0.5-1-1S38 16.6 38.5 16.6zM40.6 45.8c-1.2 0-2.1-0.9-2.1-2.1s0.9-2.1 2.1-2.1c1.2 0 2.1 0.9 2.1 2.1C42.7 44.8 41.8 45.8 40.6 45.8zM47.9 39.5H33.3V20.7h14.6V39.5z"/></svg>
