<?xml version="1.0" encoding="utf-8"?>
<!-- Generator: Adobe Illustrator 22.1.0, SVG Export Plug-In . SVG Version: 6.00 Build 0)  -->
<svg version="1.1" id="Слой_1" xmlns="http://www.w3.org/2000/svg" xmlns:xlink="http://www.w3.org/1999/xlink" x="0px" y="0px"
	 viewBox="0 0 50 50" style="enable-background:new 0 0 50 50;" xml:space="preserve">
<path d="M37.2,50h-25C9.9,50,8,48.1,8,45.8V4.2C8,1.9,9.9,0,12.2,0h25c2.3,0,4.2,1.9,4.2,4.2v41.7C41.3,48.1,39.5,50,37.2,50z
	 M37.2,39.6h-25v5.2c0,0.6,0.5,1,1,1h22.9c0.6,0,1-0.5,1-1v-5.2H37.2z M24.7,44.7c-1,0-1.9-0.9-1.9-1.9s0.8-1.9,1.9-1.9
	c1,0,1.9,0.9,1.9,1.9C26.6,43.9,25.7,44.7,24.7,44.7z M37.2,12.5h-25v25h25V12.5z M37.2,10.4V5.2c0-0.6-0.5-1-1-1h-23
	c-0.6,0-1,0.5-1,1v5.3h25V10.4z M27.8,8.3h-6.3c-0.6,0-1-0.5-1-1s0.5-1,1-1h6.3c0.6,0,1,0.5,1,1S28.4,8.3,27.8,8.3z"/>
<path d="M25,17.4c-0.2-0.5,0.2-1,0.7-1c0.3,0,0.6,0.2,0.7,0.5l4.4,11.2c0.1,0.4-0.1,0.8-0.5,1c-0.4,0.1-0.8-0.1-1-0.5
	c0,0-2.8-0.9-6.1,0.2l2.2,3.4c0.2,0.3,0.1,0.8-0.3,0.9l-1.5,0.5l-0.3,0.1c-0.3,0-0.5-0.1-0.7-0.3l-3-3.3c-1.6,0.5-3.5-0.1-4.1-1.6
	c-0.1-0.4-0.2-0.7-0.2-1.1c0-1.1,0.6-2.2,1.9-2.9C23.9,21.1,25,17.4,25,17.4z"/>
<path d="M29.7,18.1c1.2,0.5,2.2,1.5,2.7,2.7c0.5,1.3,0.5,2.7,0,3.9l1.2,0.5c0.3-0.8,0.5-1.6,0.5-2.5c0-2.5-1.5-4.8-3.8-5.8
	C30.2,17,29.7,18.1,29.7,18.1z"/>
<path d="M28.9,20.1c0.7,0.3,1.3,0.8,1.6,1.6c0.3,0.7,0.3,1.5,0,2.2l1.1,0.5c0.4-1,0.4-2.1,0-3.2s-1.2-1.8-2.2-2.2L28.9,20.1z"/>
</svg>
