<svg xmlns="http://www.w3.org/2000/svg" width="475" height="475" viewBox="0 0 475.1 475.1"><path d="M456.2 128.5c-12.6-12.6-27.6-18.8-45.1-18.8h-191.9v-9.1c0-17.5-6.3-32.5-18.8-45.1 -12.6-12.6-27.6-18.8-45.1-18.8H64c-17.5 0-32.6 6.3-45.1 18.8C6.3 67.9 0 83 0 100.5v274.1c0 17.5 6.3 32.5 18.8 45.1 12.6 12.6 27.6 18.8 45.1 18.8h347.2c17.5 0 32.6-6.3 45.1-18.8 12.6-12.6 18.8-27.6 18.8-45.1V173.6C475.1 156.1 468.8 141 456.2 128.5zM438.5 374.6c0 7.6-2.7 14.1-8 19.4 -5.3 5.3-11.8 8-19.4 8H64c-7.6 0-14.1-2.7-19.4-8 -5.3-5.3-8-11.8-8-19.4V100.5c0-7.6 2.7-14.1 8-19.4 5.3-5.3 11.8-8 19.4-8h91.4c7.6 0 14.1 2.7 19.4 8 5.3 5.3 8 11.8 8 19.4v18.3c0 7.6 2.7 14.1 8 19.4 5.3 5.3 11.8 8 19.4 8h201c7.6 0 14.1 2.7 19.4 8 5.3 5.3 8 11.8 8 19.4V374.6L438.5 374.6z"/></svg>
