<svg xmlns="http://www.w3.org/2000/svg" width="512" height="512" viewBox="0 0 511.6 511.6"><path d="M475.4 71.9c-24.2-23.6-57.6-35.4-100.2-35.4 -11.8 0-23.8 2-36.1 6.1 -12.3 4.1-23.7 9.6-34.3 16.6 -10.6 6.9-19.6 13.5-27.3 19.6 -7.6 6.1-14.8 12.6-21.7 19.4 -6.9-6.8-14.1-13.3-21.7-19.4 -7.6-6.1-16.7-12.6-27.3-19.6 -10.6-6.9-22-12.5-34.3-16.6 -12.3-4.1-24.3-6.1-36.1-6.1 -42.6 0-76 11.8-100.2 35.4C12.1 95.6 0 128.3 0 170.2c0 12.8 2.2 25.9 6.7 39.4 4.5 13.5 9.6 25 15.3 34.5 5.7 9.5 12.2 18.8 19.4 27.8 7.2 9 12.5 15.3 15.8 18.7 3.3 3.4 5.9 5.9 7.9 7.4L243.3 469.9c3.4 3.4 7.6 5.1 12.6 5.1s9.1-1.7 12.6-5.1l177.9-171.3c43.6-43.6 65.4-86.4 65.4-128.5C511.6 128.3 499.5 95.5 475.4 71.9zM421.4 271.8L255.8 431.4 89.9 271.5C54.3 235.9 36.6 202.1 36.6 170.2c0-15.4 2-29 6.1-40.8 4.1-11.8 9.3-21.2 15.7-28.1 6.4-6.9 14.1-12.6 23.3-17 9.1-4.4 18.1-7.3 26.8-8.8 8.8-1.5 18.1-2.3 28-2.3 9.9 0 20.6 2.4 32 7.3 11.4 4.9 21.9 10.9 31.5 18.3 9.6 7.3 17.8 14.2 24.7 20.6 6.9 6.4 12.6 12.2 17.1 17.6 3.4 4.2 8.1 6.3 14 6.3 5.9 0 10.6-2.1 14-6.3 4.6-5.3 10.3-11.2 17.1-17.6 6.9-6.4 15.1-13.2 24.7-20.6 9.6-7.3 20.1-13.4 31.6-18.3 11.4-4.9 22.1-7.3 32-7.3s19.2 0.8 28 2.3c8.8 1.5 17.7 4.5 26.8 8.9 9.1 4.4 16.9 10 23.3 17 6.4 6.9 11.6 16.3 15.7 28.1 4.1 11.8 6.1 25.4 6.1 40.8C475.1 202.1 457.2 236 421.4 271.8z"/></svg>
